HIERARCHY
ROOT reference
{
  OFFSET 0 0 0
  CHANNELS 6 Xposition Yposition Zposition Zrotation Xrotation Yrotation
  JOINT Hips
  {
    OFFSET -5.73281 77.7957 -10.9511
    CHANNELS 6 Xposition Yposition Zposition Zrotation Xrotation Yrotation
    JOINT Spine
    {
      OFFSET 0 7.57377 0
      CHANNELS 6 Xposition Yposition Zposition Zrotation Xrotation Yrotation
      JOINT Spine1
      {
        OFFSET 0 21.6353 0
        CHANNELS 6 Xposition Yposition Zposition Zrotation Xrotation Yrotation
        JOINT Neck
        {
          OFFSET 0 21.5464 1.95876
          CHANNELS 6 Xposition Yposition Zposition Zrotation Xrotation Yrotation
          JOINT Head
          {
            OFFSET 0 12.9308 -1.84726
            CHANNELS 6 Xposition Yposition Zposition Zrotation Xrotation Yrotation
            End Site
            {
              OFFSET 0 23.0907 0
            }
          }
        }
        JOINT LeftShoulder
        {
          OFFSET 3.70822 19.5981 -0.368577
          CHANNELS 6 Xposition Yposition Zposition Zrotation Xrotation Yrotation
          JOINT LeftArm
          {
            OFFSET 11.1726 0 0
            CHANNELS 6 Xposition Yposition Zposition Zrotation Xrotation Yrotation
            JOINT LeftForeArm
            {
              OFFSET 28.6421 0 0
              CHANNELS 6 Xposition Yposition Zposition Zrotation Xrotation Yrotation
              JOINT LeftHand
              {
                OFFSET 23.9346 0 0
                CHANNELS 6 Xposition Yposition Zposition Zrotation Xrotation Yrotation
                End Site
                {
                  OFFSET 13.8545 0 0
                }
              }
            }
          }
        }
        JOINT RightShoulder
        {
          OFFSET -3.63664 19.5981 -0.368577
          CHANNELS 6 Xposition Yposition Zposition Zrotation Xrotation Yrotation
          JOINT RightArm
          {
            OFFSET -11.1726 0 0
            CHANNELS 6 Xposition Yposition Zposition Zrotation Xrotation Yrotation
            JOINT RightForeArm
            {
              OFFSET -28.6421 0 0
              CHANNELS 6 Xposition Yposition Zposition Zrotation Xrotation Yrotation
              JOINT RightHand
              {
                OFFSET -23.9346 0 0
                CHANNELS 6 Xposition Yposition Zposition Zrotation Xrotation Yrotation
                End Site
                {
                  OFFSET -13.8545 0 0
                }
              }
            }
          }
        }
      }
    }
    JOINT LeftUpLeg
    {
      OFFSET 9.2363 0 0
      CHANNELS 6 Xposition Yposition Zposition Zrotation Xrotation Yrotation
      JOINT LeftLeg
      {
        OFFSET 0 -40.7061 0
        CHANNELS 6 Xposition Yposition Zposition Zrotation Xrotation Yrotation
        JOINT LeftFoot
        {
          OFFSET 0 -40.9975 0
          CHANNELS 6 Xposition Yposition Zposition Zrotation Xrotation Yrotation
          JOINT LeftToeBase
          {
            OFFSET 0 -6.00359 13.8545
            CHANNELS 6 Xposition Yposition Zposition Zrotation Xrotation Yrotation
            End Site
            {
              OFFSET 0 0 3.69452
            }
          }
        }
      }
    }
    JOINT RightUpLeg
    {
      OFFSET -9.2363 0 0
      CHANNELS 6 Xposition Yposition Zposition Zrotation Xrotation Yrotation
      JOINT RightLeg
      {
        OFFSET 0 -40.7061 0
        CHANNELS 6 Xposition Yposition Zposition Zrotation Xrotation Yrotation
        JOINT RightFoot
        {
          OFFSET 0 -40.9975 0
          CHANNELS 6 Xposition Yposition Zposition Zrotation Xrotation Yrotation
          JOINT RightToeBase
          {
            OFFSET 0 -6.00359 13.8545
            CHANNELS 6 Xposition Yposition Zposition Zrotation Xrotation Yrotation
            End Site
            {
              OFFSET 0 0 3.69452
            }
          }
        }
      }
    }
  }
}
MOTION
Frames:	8
Frame Time:	0.004
0 0 0 0 0 -0 0.083949 67.5566 -97.7186 6.96425 -14.0987 3.62793 0 7.57377 1.42109e-014 -8.47023 6.10671 3.17966 8.88178e-016 21.6353 0 3.53776 15.9142 2.23235 0 21.5464 1.95876 0.930799 14.7697 2.47047 -3.55271e-015 12.9308 -1.84726 1.53627 12.4583 2.61215 3.70822 19.5981 -0.368577 -9.21926 -19.3989 9.61239 11.1726 2.84217e-014 1.42109e-014 -154.998 69.77 92.2009 28.6421 0 1.42109e-014 52.6124 -41.5522 -48.779 23.9346 7.10543e-015 -7.10543e-015 -21.0649 -19.4064 0.847476 -3.63664 19.5981 -0.368577 5.13904 11.6259 -13.6093 -11.1726 0 0 74.7484 41.6808 -4.0452 -28.6421 7.10543e-015 0 -25.0792 -19.6682 63.0579 -23.9346 -1.42109e-014 -3.55271e-015 -10.9657 -4.63121 3.16494 9.2363 1.42109e-014 0 -1.1744 -21.0442 11.6158 -3.55271e-015 -40.7061 7.10543e-015 10.7472 70.7403 -2.71245 0 -40.9975 0 4.02793 -47.3979 -3.49663 -3.55271e-015 -6.00359 13.8545 1.98785e-015 0 -3.18055e-015 -9.2363 0 0 -23.2809 -9.95599 5.21318 -3.55271e-015 -40.7061 -1.42109e-014 -145.756 86.7625 161.229 -1.77636e-015 -40.9975 7.10543e-015 3.89671 -18.1997 -9.46665 3.55271e-015 -6.00359 13.8545 1.26725e-015 0 1.52816e-015 
0 0 0 0 0 -0 0.107083 67.614 -97.527 6.82255 -14.1942 3.97914 -3.55271e-015 7.57377 0 -8.40463 6.30068 3.05887 0 21.6353 -1.42109e-014 3.61293 16.0489 2.08598 0 21.5464 1.95876 0.986813 14.6785 2.45443 0 12.9308 -1.84726 1.50813 12.2783 2.59519 3.70822 19.5981 -0.368577 -9.04133 -19.5816 9.63972 11.1726 0 0 -154.904 69.6059 92.0102 28.6421 -1.42109e-014 -1.42109e-014 52.4276 -41.4672 -49.0201 23.9346 -7.10543e-015 -7.10543e-015 -21.0491 -19.2381 0.720151 -3.63664 19.5981 -0.368577 5.16108 11.7303 -13.6474 -11.1726 0 0 74.6714 41.5023 -3.8672 -28.6421 7.10543e-015 0 -25.0006 -19.6257 63.078 -23.9346 0 7.10543e-015 -10.8248 -4.65284 3.43337 9.2363 0 -1.42109e-014 -1.28355 -20.8163 11.2528 0 -40.7061 0 11.2129 70.6675 -3.11297 0 -40.9975 0 4.03626 -47.4862 -3.40054 0 -6.00359 13.8545 3.97569e-016 0 -1.59028e-015 -9.2363 0 0 -22.9325 -10.2142 4.84816 -3.55271e-015 -40.7061 1.42109e-014 -150.576 86.4746 167.048 -3.55271e-015 -40.9975 7.10543e-015 3.74319 -18.6014 -10.1846 0 -6.00359 13.8545 8.57259e-016 3.18055e-015 -2.61526e-015 
0 0 0 0 0 -0 0.0940205 67.6389 -97.4086 6.74426 -14.1423 4.05668 1.77636e-015 7.57377 0 -8.52445 6.44986 3.09109 8.88178e-016 21.6353 0 3.74094 16.0611 2.08191 0 21.5464 1.95876 0.953727 14.5783 2.46852 -3.55271e-015 12.9308 -1.84726 1.6041 12.0864 2.61567 3.70822 19.5981 -0.368577 -8.94276 -19.7833 9.58531 11.1726 0 -1.42109e-014 -155.043 69.3689 92.1069 28.6421 -1.42109e-014 0 52.3737 -41.4621 -49.1378 23.9346 7.10543e-015 0 -20.8607 -19.1974 0.75503 -3.63664 19.5981 -0.368577 5.11764 11.4427 -13.6052 -11.1726 1.42109e-014 0 74.9676 41.4431 -4.28566 -28.6421 7.10543e-015 0 -24.8899 -19.8212 63.2158 -23.9346 0 -7.10543e-015 -10.7538 -4.88597 3.41735 9.2363 0 -1.42109e-014 -1.303 -20.7835 11.2813 0 -40.7061 7.10543e-015 11.8531 70.6239 -3.82337 0 -40.9975 1.42109e-014 4.15576 -47.5182 -3.16746 0 -6.00359 13.8545 -2.38542e-015 1.59028e-015 -0 -9.2363 0 1.42109e-014 -22.6228 -10.9031 4.80942 3.55271e-015 -40.7061 0 -157.749 86.1324 174.68 -1.77636e-015 -40.9975 1.42109e-014 3.7774 -18.9252 -10.3592 3.55271e-015 -6.00359 13.8545 -3.60297e-016 1.59028e-014 9.62863e-016 
0 0 0 0 0 -0 0.092521 67.6561 -97.3209 6.70349 -14.0308 4.09699 -1.77636e-015 7.57377 0 -8.63839 6.59614 3.13935 -8.88178e-016 21.6353 0 3.76009 15.9758 2.11277 0 21.5464 1.95876 1.04702 14.519 2.4656 0 12.9308 -1.84726 1.5957 11.9431 2.61281 3.70822 19.5981 -0.368577 -8.98252 -19.9742 9.34127 11.1726 0 1.42109e-014 -154.46 69.0323 91.6533 28.6421 -1.42109e-014 0 52.2501 -41.4972 -49.4259 23.9346 0 -7.10543e-015 -20.6308 -19.1654 0.903717 -3.63664 19.5981 -0.368577 5.23045 11.5937 -13.591 -11.1726 1.42109e-014 0 74.9001 41.348 -4.13164 -28.6421 -7.10543e-015 0 -24.9113 -19.9604 63.1985 -23.9346 0 0 -10.7513 -5.02905 3.46377 9.2363 1.42109e-014 1.42109e-014 -1.36353 -20.824 11.2384 0 -40.7061 7.10543e-015 12.1812 70.5478 -3.67599 -7.10543e-015 -40.9975 0 3.72062 -47.6213 -3.73061 0 -6.00359 13.8545 -1.98785e-015 1.59028e-015 -0 -9.2363 0 1.42109e-014 -22.3842 -11.698 4.61984 3.55271e-015 -40.7061 7.10543e-015 -161.963 85.6393 179.964 5.32907e-015 -40.9975 7.10543e-015 3.40343 -19.2726 -11.2868 -3.55271e-015 -6.00359 13.8545 2.48481e-016 -3.18055e-015 -1.61513e-015 
0 0 0 0 0 -0 0.102269 67.6821 -97.2335 6.6307 -13.8972 4.15826 0 7.57377 0 -8.69998 6.7233 3.1745 0 21.6353 0 3.79345 15.9165 2.13196 -1.77636e-015 21.5464 1.95876 1.1151 14.3929 2.46465 0 12.9308 -1.84726 1.60894 11.8255 2.60656 3.70822 19.5981 -0.368577 -8.91592 -20.1861 9.30501 11.1726 0 -1.42109e-014 -155.021 68.7933 92.2013 28.6421 -1.42109e-014 0 52.2942 -41.5495 -49.4249 23.9346 1.42109e-014 7.10543e-015 -20.3109 -19.2218 1.00615 -3.63664 19.5981 -0.368577 5.26577 11.5977 -13.7195 -11.1726 -1.42109e-014 0 74.905 41.4585 -4.0604 -28.6421 0 0 -25.0345 -20.0946 63.0979 -23.9346 0 7.10543e-015 -10.4892 -5.12872 3.62616 9.2363 0 0 -1.41993 -20.8777 11.1335 0 -40.7061 0 12.4037 70.4739 -3.59004 7.10543e-015 -40.9975 -1.42109e-014 3.63975 -47.7432 -3.898 -3.55271e-015 -6.00359 13.8545 -3.97569e-016 -1.59028e-015 -0 -9.2363 0 0 -22.1564 -12.5196 4.37807 0 -40.7061 7.10543e-015 -165.507 85.1955 -175.829 1.77636e-015 -40.9975 -1.42109e-014 2.97648 -19.5641 -11.8195 3.55271e-015 -6.00359 13.8545 2.57799e-016 0 4.81432e-016 
0 0 0 0 0 -0 0.088377 67.7506 -97.0799 6.51887 -13.8683 4.44114 0 7.57377 -1.42109e-014 -8.71307 6.83092 3.10169 8.88178e-016 21.6353 0 3.89452 16.0003 2.03314 0 21.5464 1.95876 1.15912 14.3451 2.46669 -3.55271e-015 12.9308 -1.84726 1.6022 11.6168 2.60857 3.70822 19.5981 -0.368577 -8.78558 -20.3579 9.21799 11.1726 0 0 -155.167 68.5812 92.2408 28.6421 1.42109e-014 -1.42109e-014 52.1837 -41.557 -49.489 23.9346 0 7.10543e-015 -20.1361 -19.2611 1.04402 -3.63664 19.5981 -0.368577 5.27441 11.6936 -13.7382 -11.1726 0 0 74.9486 41.4137 -3.95759 -28.6421 -7.10543e-015 0 -25.081 -20.1567 63.0766 -23.9346 -7.10543e-015 -7.10543e-015 -10.5961 -5.16905 3.56905 9.2363 0 0 -1.46989 -20.7803 10.9374 0 -40.7061 7.10543e-015 12.9294 70.3615 -4.18474 0 -40.9975 0 3.66325 -47.7326 -3.77481 0 -6.00359 13.8545 3.97569e-016 -1.59028e-015 1.59028e-015 -9.2363 -1.42109e-014 0 -21.903 -12.999 3.92247 -3.55271e-015 -40.7061 -7.10543e-015 -168.345 84.9473 -172.589 -5.32907e-015 -40.9975 0 2.9354 -19.7516 -12.1582 0 -6.00359 13.8545 1.49089e-016 -6.36111e-015 -2.45996e-015 
0 0 0 0 0 -0 0.0755751 67.8104 -96.9581 6.42255 -13.843 4.55898 0 7.57377 1.42109e-014 -8.77634 6.99596 3.11353 -8.88178e-016 21.6353 0 3.99696 16.0169 2.01345 0 21.5464 1.95876 1.16968 14.2281 2.46768 0 12.9308 -1.84726 1.66801 11.4972 2.61797 3.70822 19.5981 -0.368577 -8.80019 -20.5596 9.02018 11.1726 0 0 -154.533 68.2676 91.683 28.6421 0 0 51.8959 -41.5554 -49.8872 23.9346 -1.42109e-014 -7.10543e-015 -19.8295 -19.2126 1.20789 -3.63664 19.5981 -0.368577 5.22534 11.4735 -13.6689 -11.1726 -1.42109e-014 0 75.2107 41.2984 -4.30922 -28.6421 0 2.84217e-014 -25.0074 -20.2014 63.216 -23.9346 7.10543e-015 0 -10.6092 -5.22485 3.60332 9.2363 0 0 -1.46836 -20.677 10.8628 0 -40.7061 0 13.2491 70.2408 -4.45687 0 -40.9975 0 3.67354 -47.7624 -3.74357 0 -6.00359 13.8545 1.59028e-015 1.59028e-015 -0 -9.2363 0 0 -21.649 -13.6126 3.62987 3.55271e-015 -40.7061 -7.10543e-015 -171.233 84.6623 -169.396 3.55271e-015 -40.9975 0 2.81945 -19.9421 -12.4132 0 -6.00359 13.8545 1.49089e-016 3.18055e-015 -2.98177e-016 
0 0 0 0 0 -0 0.0731768 67.8646 -96.8514 6.36373 -13.8006 4.63395 0 7.57377 -1.42109e-014 -8.82952 7.16094 3.14488 0 21.6353 0 4.01491 15.9925 2.02708 -1.77636e-015 21.5464 1.95876 1.24063 14.194 2.46437 -3.55271e-015 12.9308 -1.84726 1.65587 11.3113 2.61561 3.70822 19.5981 -0.368577 -8.78542 -20.7532 8.90051 11.1726 2.84217e-014 1.42109e-014 -154.682 68.0034 91.8778 28.6421 0 0 51.8587 -41.6155 -49.9682 23.9346 -1.42109e-014 0 -19.6 -19.273 1.28902 -3.63664 19.5981 -0.368577 5.30478 11.5714 -13.8001 -11.1726 0 -2.84217e-014 75.0779 41.3796 -4.08829 -28.6421 0 0 -25.0987 -20.174 63.1873 -23.9346 -7.10543e-015 0 -10.9709 -5.14614 3.497 9.2363 -1.42109e-014 -1.42109e-014 -1.49334 -20.5871 10.7793 0 -40.7061 7.10543e-015 13.3775 70.1198 -4.49775 0 -40.9975 -1.42109e-014 3.73362 -47.8224 -3.69663 3.55271e-015 -6.00359 13.8545 -7.95139e-016 1.59028e-015 -1.59028e-015 -9.2363 0 -1.42109e-014 -21.4626 -14.2668 3.25544 3.55271e-015 -40.7061 0 -172.814 84.3826 -167.664 -5.32907e-015 -40.9975 0 3.21754 -20.137 -12.401 0 -6.00359 13.8545 -4.96962e-016 -1.27222e-014 -9.93923e-017 
